<?xml version="1.0" encoding="UTF-8"?>
<svg version="1.1" xmlns="http://www.w3.org/2000/svg" width="500" height="500">
<path d="M0 0 C165 0 330 0 500 0 C500 165 500 330 500 500 C335 500 170 500 0 500 C0 335 0 170 0 0 Z " fill="#F6FEEB" transform="translate(0,0)"/>
<path d="M0 0 C1.07765625 0.01804687 2.1553125 0.03609375 3.265625 0.0546875 C4.49539063 0.08949219 4.49539063 0.08949219 5.75 0.125 C4.27698911 6.67171505 0.30138791 11.6250582 -5.13671875 15.453125 C-8.74959826 17.41712441 -12.00537643 18.29724506 -16.0625 18.875 C-26.16610211 20.6598145 -34.37932677 29.1206324 -40.25 37.125 C-63.31027199 72.48116654 -62.74145411 114.44694798 -63.25 155.125 C-62.18990723 154.91278809 -62.18990723 154.91278809 -61.10839844 154.69628906 C-53.17957863 153.22722411 -45.55284273 152.81187953 -37.5 152.875 C-36.27152344 152.88031738 -35.04304687 152.88563477 -33.77734375 152.89111328 C-24.77507067 152.98498598 -16.12103876 153.60263953 -7.25 155.125 C-6.37875488 155.24762207 -5.50750977 155.37024414 -4.60986328 155.49658203 C3.18681219 156.65131353 10.42530697 158.70338563 17.875 161.25 C19.6525769 161.85485229 19.6525769 161.85485229 21.46606445 162.47192383 C43.1823475 169.9851822 62.34176945 180.88536767 81.75 193.125 C78.13634699 194.329551 76.24954663 193.86499029 72.51171875 193.19921875 C71.23208252 192.98031982 69.95244629 192.7614209 68.6340332 192.53588867 C67.9512027 192.41748627 67.26837219 192.29908386 66.56484985 192.17709351 C13.84180618 183.14121288 -36.06007852 187.98911351 -87.93310547 199.39746094 C-127.95612337 208.17624743 -166.73950992 213.22585651 -207.25 205.125 C-208.91240723 204.81151611 -208.91240723 204.81151611 -210.60839844 204.49169922 C-231.62998584 200.51552761 -252.28696061 194.86928252 -272.25 187.125 C-272.25 186.795 -272.25 186.465 -272.25 186.125 C-270.72922852 186.10312622 -270.72922852 186.10312622 -269.17773438 186.08081055 C-246.38864162 185.72947039 -223.90473876 184.63236484 -201.25 182.125 C-198.83079272 181.87561916 -196.4113447 181.62913358 -193.99145508 181.38647461 C-188.34558721 180.74572813 -182.79578931 179.88860903 -177.23046875 178.7421875 C-175.91069157 178.47300244 -174.59078189 178.20446628 -173.27075195 177.93652344 C-172.26995102 177.73319397 -172.26995102 177.73319397 -171.24893188 177.52575684 C-168.08458749 176.8913517 -164.91350121 176.29375971 -161.7421875 175.6953125 C-146.81415874 172.86761702 -131.98829 169.83832613 -117.25 166.125 C-117.01396306 113.87858192 -117.01396306 113.87858192 -139.25 68.125 C-144.33862618 63.52505191 -149.91479841 62.4016909 -156.47265625 60.9296875 C-161.51291283 59.46936 -164.08590209 56.75473707 -167.125 52.5 C-168.25 50.125 -168.25 50.125 -168.25 47.125 C-159.06856246 46.81376483 -159.06856246 46.81376483 -155.25 49.125 C-152.49707614 51.85046328 -149.90594995 54.60595802 -148.359375 58.1875 C-146.88951383 60.75458148 -145.306344 61.41393874 -142.6875 62.75 C-126.92863738 71.87833253 -120.76976097 89.1744291 -116.2265625 105.890625 C-113.86245704 115.24305717 -112.56120833 124.66902433 -111.5 134.25 C-111.37230225 135.38050781 -111.24460449 136.51101563 -111.11303711 137.67578125 C-110.2083223 146.51566514 -110.12055654 155.25236982 -110.25 164.125 C-109.28175293 163.91294922 -108.31350586 163.70089844 -107.31591797 163.48242188 C-103.70544619 162.69343732 -100.09324029 161.91265714 -96.48046875 161.13427734 C-94.92041712 160.79697762 -93.36083722 160.45748807 -91.80175781 160.11572266 C-89.55395579 159.62338799 -87.30454586 159.13908903 -85.0546875 158.65625 C-84.3638205 158.50313354 -83.67295349 158.35001709 -82.96115112 158.19226074 C-78.99012126 157.34934289 -75.30684642 156.97045347 -71.25 157.125 C-71.27320313 155.85011719 -71.29640625 154.57523438 -71.3203125 153.26171875 C-71.50743345 138.13348962 -70.67893722 123.18362791 -69.25 108.125 C-69.15348145 107.10696289 -69.05696289 106.08892578 -68.95751953 105.04003906 C-66.11933252 76.6954522 -58.91377075 47.5935918 -37.78125 27.16796875 C-34.84659705 24.79941398 -31.77046656 22.99962554 -28.5 21.125 C-23.264584 18.07606864 -20.82102054 15.70783867 -18.35546875 10.23828125 C-14.63767221 3.13111543 -7.68114774 -0.16698147 0 0 Z " fill="#D49B44" transform="translate(346.25,124.875)"/>
<path d="M0 0 C2 1 2 1 3.1484375 3.81640625 C7.76323557 17.91064622 12.21849414 32.02456251 12.0625 47 C12.05347656 48.134375 12.04445313 49.26875 12.03515625 50.4375 C12.01775391 51.7059375 12.01775391 51.7059375 12 53 C13.92005859 53.13921875 13.92005859 53.13921875 15.87890625 53.28125 C21.24360672 53.87814518 25.93293747 55.54527675 30.9375 57.5 C31.78634766 57.82097656 32.63519531 58.14195313 33.50976562 58.47265625 C39.50472384 60.75236192 39.50472384 60.75236192 42 62 C40.31841044 66.2142275 37.36127218 69.11396043 34.25 72.3125 C33.73695313 72.87517578 33.22390625 73.43785156 32.6953125 74.01757812 C31.140625 75.61328125 31.140625 75.61328125 28 78 C25.06640625 77.98046875 25.06640625 77.98046875 22 77 C20.24236328 76.5359375 20.24236328 76.5359375 18.44921875 76.0625 C15.9486407 75.35621004 13.44863566 74.64788809 10.94921875 73.9375 C-4.86995126 69.8662872 -21.59456983 71.13092622 -37 76 C-38.78857422 76.54333984 -38.78857422 76.54333984 -40.61328125 77.09765625 C-67.41461045 85.89230821 -84.7267743 104.41982509 -97.50390625 128.87890625 C-103.62828603 141.43845522 -105.17967056 154.82952463 -105.1875 168.625 C-105.19974609 169.73746094 -105.21199219 170.84992188 -105.22460938 171.99609375 C-105.26412164 194.6234507 -97.19273381 216.1566144 -82 233 C-81.14341797 233.81210937 -81.14341797 233.81210937 -80.26953125 234.640625 C-79 236 -79 236 -79 238 C-82.26988299 238.67138621 -85.54105049 239.33629263 -88.8125 240 C-89.74126953 240.19078125 -90.67003906 240.3815625 -91.62695312 240.578125 C-92.51962891 240.75859375 -93.41230469 240.9390625 -94.33203125 241.125 C-95.56530151 241.37636719 -95.56530151 241.37636719 -96.82348633 241.6328125 C-99 242 -99 242 -102 242 C-103.9373023 239.05650193 -105.67158119 236.08166406 -107.33203125 232.9765625 C-108.55224845 230.77391897 -108.55224845 230.77391897 -111 228 C-123.29963854 226.06841704 -138.13602761 233.79294045 -149.34765625 238.1953125 C-152.86600752 239.57663828 -156.39705365 240.8522634 -160 242 C-156.38726666 236.03113622 -151.74606389 231.08797587 -147 226 C-146.44441406 225.39027344 -145.88882813 224.78054688 -145.31640625 224.15234375 C-138.63202156 217.10123471 -130.41517268 210.81760815 -122 206 C-122.65617313 201.06914557 -123.55162291 196.24869728 -124.5625 191.375 C-125.98765462 184.20292833 -126.33844038 177.32033997 -126 170 C-126.87140625 169.71898437 -127.7428125 169.43796875 -128.640625 169.1484375 C-131.74148057 168.08837757 -134.72487806 166.88146599 -137.75 165.625 C-150.30733956 160.77102268 -163.68464454 158.62695662 -177 157 C-171.9039745 150.5973013 -158.53059153 148.4309714 -150.671875 147.26953125 C-141.80531963 146.61868836 -132.88361601 146.85321936 -124 147 C-123.94739014 146.41702148 -123.89478027 145.83404297 -123.84057617 145.23339844 C-122.77958984 134.51997055 -118.99186048 125.4917172 -113.9765625 116.0078125 C-112.73099736 112.17147186 -113.29485128 110.60461638 -115 107 C-116.51050781 104.63194826 -116.51050781 104.63194826 -118.3125 102.5 C-118.94285156 101.7265625 -119.57320312 100.953125 -120.22265625 100.15625 C-121.10244141 99.08890625 -121.10244141 99.08890625 -122 98 C-122.7425 97.01 -123.485 96.02 -124.25 95 C-130.71353119 87.35745335 -139.71801836 81.63713015 -147.76171875 75.75 C-148.50035156 75.1725 -149.23898438 74.595 -150 74 C-150 73.67 -150 73.34 -150 73 C-131.17369241 74.20788257 -114.89990313 81.34736236 -99 91 C-94.79600894 87.44996311 -90.71624923 83.81083913 -86.6875 80.0625 C-82.32872932 76.06545302 -77.83981582 72.6172924 -72.8984375 69.375 C-70.87288981 68.13082675 -70.87288981 68.13082675 -70 66 C-69.67265979 60.48396927 -70.52227422 55.77426928 -71.9375 50.5 C-72.14842285 49.69699463 -72.3593457 48.89398926 -72.57666016 48.06665039 C-74.82279293 39.94202745 -77.9102406 32.16838892 -81.14038086 24.390625 C-81.52460205 23.45605469 -81.90882324 22.52148438 -82.3046875 21.55859375 C-82.8303833 20.31033813 -82.8303833 20.31033813 -83.36669922 19.03686523 C-84 17 -84 17 -83 15 C-67.78658785 26.78503758 -57.68145146 39.93323854 -49 57 C-48.23969482 56.81824219 -47.47938965 56.63648438 -46.69604492 56.44921875 C-43.19606428 55.62012911 -39.69194975 54.80998214 -36.1875 54 C-34.99189453 53.71382812 -33.79628906 53.42765625 -32.56445312 53.1328125 C-25.24654132 51.45786811 -18.5061227 50.584968 -11 51 C-10.79866455 50.31929443 -10.5973291 49.63858887 -10.38989258 48.93725586 C-8.18452066 41.48099841 -8.18452066 41.48099841 -7.31958008 39.22631836 C-4.46614752 31.54201804 -3.49777553 23.50467581 -2.3125 15.4375 C-2.08601588 13.9367387 -1.85880805 12.43608643 -1.63085938 10.93554688 C-1.07889164 7.29158357 -0.53672749 3.64624306 0 0 Z " fill="#89C433" transform="translate(261,54)"/>
<path d="M0 0 C-3.16706023 1.01747184 -5.16694318 0.92427695 -8.375 0.125 C-35.16456657 -5.63787188 -64.77395206 -1.73983289 -91 5 C-91.6511377 5.1664502 -92.30227539 5.33290039 -92.97314453 5.50439453 C-98.44597854 6.91571522 -103.90489492 8.36826042 -109.31640625 10 C-147.7864164 21.20400751 -187.42424293 19.23976831 -225 6 C-225.99 5.34 -226.98 4.68 -228 4 C-227.04150146 3.96559814 -226.08300293 3.93119629 -225.09545898 3.89575195 C-189.12223632 2.54278113 -155.69255273 -3.61389848 -121 -13 C-104.69142035 -17.40530377 -104.69142035 -17.40530377 -96.5625 -19.1875 C-95.83869141 -19.35185547 -95.11488281 -19.51621094 -94.36914062 -19.68554688 C-60.84231304 -27.11256608 -28.80252276 -17.24649539 0 0 Z " fill="#D49B45" transform="translate(400,342)"/>
<path d="M0 0 C0.99 0.495 0.99 0.495 2 1 C-8.4539873 14.96566263 -22.14070713 26.516275 -38 34 C-37.731875 35.216875 -37.46375 36.43375 -37.1875 37.6875 C-37.00703125 38.51636719 -36.8265625 39.34523437 -36.640625 40.19921875 C-36.2046131 42.10544149 -35.73440993 44.00409306 -35.234375 45.89453125 C-32.91550837 54.93129093 -32.32228503 63.72041365 -32 73 C-31.21625 73.2475 -30.4325 73.495 -29.625 73.75 C-26.79116804 74.72718344 -24.09577905 75.79650446 -21.33984375 76.9609375 C-15.85991061 79.17341565 -10.3414543 80.44988153 -4.5625 81.625 C-3.12293945 81.93050781 -3.12293945 81.93050781 -1.65429688 82.2421875 C4.8759207 83.61419281 11.42963506 84.83689059 18 86 C15.22754748 87.84830168 13.23411831 88.68431501 10.09765625 89.65625 C9.13077881 89.95587646 8.16390137 90.25550293 7.16772461 90.56420898 C-6.91495497 94.80816769 -19.20589406 97.3939259 -34 97 C-34.0515625 97.63421875 -34.103125 98.2684375 -34.15625 98.921875 C-35.45788781 109.63080429 -39.79410882 119.15020619 -44 129 C-51.18950517 127.80994297 -58.06614823 126.25613398 -65 124 C-63.8861745 121.19678366 -62.7528093 118.40371269 -61.59765625 115.6171875 C-51.56633579 91.28320838 -48.731315 64.87846906 -58.82568359 39.96191406 C-60.0811692 37.04918746 -61.43195107 34.20130581 -62.86328125 31.37109375 C-64 29 -64 29 -64 27 C-62.18242421 25.89572571 -60.31848467 24.86742136 -58.4375 23.875 C-54.22860479 21.5464677 -51.55119306 19.77449329 -48.9375 15.75 C-44.93746585 10.62403031 -39.24808738 10.62663508 -33.18676758 9.86572266 C-31.53016115 9.66916798 -29.87318389 9.47570916 -28.21582031 9.28564453 C-18.58548779 8.04418474 -8.6467141 4.32335705 0 0 Z " fill="#89C534" transform="translate(401,147)"/>
<path d="M0 0 C4.62 0 9.24 0 14 0 C14 1.65 14 3.3 14 5 C13.34 5 12.68 5 12 5 C12.99 8.63 13.98 12.26 15 16 C16.68273619 12.63452762 17.64491818 9.9107659 18.5625 6.3125 C19.89323843 1.10676157 19.89323843 1.10676157 21 0 C23.67058851 -0.14115161 26.32432238 -0.04247107 29 0 C29.67126129 2.4363189 30.33716354 4.87388883 31 7.3125 C31.19078125 8.00279297 31.3815625 8.69308594 31.578125 9.40429688 C32.37716184 12.35787949 33 14.92559219 33 18 C33.66 18 34.32 18 35 18 C35.66 13.71 36.32 9.42 37 5 C36.01 5 35.02 5 34 5 C34 3.35 34 1.7 34 0 C38.29 0 42.58 0 47 0 C47 1.65 47 3.3 47 5 C46.01 5.33 45.02 5.66 44 6 C42.92595053 8.29635945 42.92595053 8.29635945 42.17578125 11.12890625 C41.86962891 12.16337891 41.56347656 13.19785156 41.24804688 14.26367188 C40.93931641 15.35228516 40.63058594 16.44089844 40.3125 17.5625 C39.99216797 18.65498047 39.67183594 19.74746094 39.34179688 20.87304688 C38.55009489 23.57901335 37.77007956 26.28781582 37 29 C34.03 29 31.06 29 28 29 C25.525 21.08 25.525 21.08 23 13 C21.68 18.28 20.36 23.56 19 29 C16.03 29 13.06 29 10 29 C9.65219482 27.9627478 9.65219482 27.9627478 9.29736328 26.90454102 C8.24755015 23.78789189 7.18644218 20.67520675 6.125 17.5625 C5.57779297 15.92958008 5.57779297 15.92958008 5.01953125 14.26367188 C4.66503906 13.22919922 4.31054688 12.19472656 3.9453125 11.12890625 C3.62062988 10.17056885 3.29594727 9.21223145 2.96142578 8.22485352 C2.21347073 5.83854898 2.21347073 5.83854898 0 5 C0 3.35 0 1.7 0 0 Z " fill="#D59D47" transform="translate(273,403)"/>
<path d="M0 0 C0.33 4.62 0.66 9.24 1 14 C2.32 13.34 3.64 12.68 5 12 C9.23244524 11.5382787 11.27106961 11.52461062 14.875 13.875 C17.06741169 16.06741169 17.94440704 16.98976237 18.11352539 20.06298828 C18.10828857 20.89040527 18.10305176 21.71782227 18.09765625 22.5703125 C18.09443359 23.46621094 18.09121094 24.36210937 18.08789062 25.28515625 C18.07951172 26.22230469 18.07113281 27.15945313 18.0625 28.125 C18.05798828 29.06988281 18.05347656 30.01476562 18.04882812 30.98828125 C18.03702357 33.32558387 18.02055759 35.66276061 18 38 C18.99 38 19.98 38 21 38 C21 39.32 21 40.64 21 42 C15.72 42 10.44 42 5 42 C5 40.68 5 39.36 5 38 C6.32 38 7.64 38 9 38 C8.88638398 35.20743781 8.7596411 32.41655882 8.625 29.625 C8.5940625 28.8309375 8.563125 28.036875 8.53125 27.21875 C8.48183579 22.63332625 8.48183579 22.63332625 6 19 C4.35 19 2.7 19 1 19 C0.67 25.27 0.34 31.54 0 38 C0.99 38 1.98 38 3 38 C3 39.32 3 40.64 3 42 C-2.28 42 -7.56 42 -13 42 C-13 40.68 -13 39.36 -13 38 C-11.68 38 -10.36 38 -9 38 C-9 27.44 -9 16.88 -9 6 C-9.99 5.67 -10.98 5.34 -12 5 C-12 3.68 -12 2.36 -12 1 C-8.0186217 -0.3271261 -4.14954773 -0.06915913 0 0 Z " fill="#D49C46" transform="translate(250,390)"/>
<path d="M0 0 C9.9 0 19.8 0 30 0 C30 2.97 30 5.94 30 9 C28.35 9 26.7 9 25 9 C24.67 7.68 24.34 6.36 24 5 C20.37 5 16.74 5 13 5 C13 9.29 13 13.58 13 18 C16.465 17.505 16.465 17.505 20 17 C20.33 16.01 20.66 15.02 21 14 C22.65 14 24.3 14 26 14 C26 18.29 26 22.58 26 27 C24.35 27 22.7 27 21 27 C21 25.68 21 24.36 21 23 C18.36 23 15.72 23 13 23 C13 27.29 13 31.58 13 36 C15.64 36 18.28 36 21 36 C21 37.32 21 38.64 21 40 C14.07 40 7.14 40 0 40 C0 38.68 0 37.36 0 36 C1.32 36 2.64 36 4 36 C3.67 25.77 3.34 15.54 3 5 C2.01 4.67 1.02 4.34 0 4 C0 2.68 0 1.36 0 0 Z " fill="#D59D47" transform="translate(119,392)"/>
<path d="M0 0 C2.5625 1.6875 2.5625 1.6875 4.5625 4.6875 C4.78955078 6.95581055 4.78955078 6.95581055 4.7578125 9.57421875 C4.75136719 10.51201172 4.74492187 11.44980469 4.73828125 12.41601562 C4.72152344 13.39248047 4.70476562 14.36894531 4.6875 15.375 C4.67847656 16.36306641 4.66945313 17.35113281 4.66015625 18.36914062 C4.6365843 20.80883765 4.60368022 23.24804697 4.5625 25.6875 C5.8825 25.6875 7.2025 25.6875 8.5625 25.6875 C8.2325 26.6775 7.9025 27.6675 7.5625 28.6875 C4.5925 29.0175 1.6225 29.3475 -1.4375 29.6875 C-1.7675 28.6975 -2.0975 27.7075 -2.4375 26.6875 C-3.283125 27.1825 -4.12875 27.6775 -5 28.1875 C-8.94032122 29.90691289 -11.18470893 30.29504158 -15.4375 29.6875 C-18.21702827 28.313008 -19.30299317 27.13437368 -21.4375 24.6875 C-22.125 21.1875 -22.125 21.1875 -21.4375 17.6875 C-18.60188718 14.04171208 -15.91501737 11.86018312 -11.4375 10.6875 C-9.1054198 10.61103835 -6.76904122 10.59606701 -4.4375 10.6875 C-4.7675 8.7075 -5.0975 6.7275 -5.4375 4.6875 C-6.85405793 4.6602585 -8.27077045 4.64099533 -9.6875 4.625 C-10.47640625 4.61339844 -11.2653125 4.60179687 -12.078125 4.58984375 C-14.34441002 4.68364694 -16.2663895 5.05508937 -18.4375 5.6875 C-18.7675 4.3675 -19.0975 3.0475 -19.4375 1.6875 C-12.80985831 -1.69682767 -7.09381258 -2.70854662 0 0 Z " fill="#D59D48" transform="translate(343.4375,403.3125)"/>
<path d="M0 0 C4.95 0 9.9 0 15 0 C15 1.65 15 3.3 15 5 C14.01 5 13.02 5 12 5 C13.98 9.29 15.96 13.58 18 18 C19.32 13.71 20.64 9.42 22 5 C21.01 5 20.02 5 19 5 C19 3.35 19 1.7 19 0 C23.29 0 27.58 0 32 0 C32 5 32 5 30.67358398 6.40869141 C30.12130127 6.93382324 29.56901855 7.45895508 29 8 C28.00008287 10.12024221 27.08457269 12.28094636 26.22265625 14.4609375 C25.84372475 15.40231064 25.84372475 15.40231064 25.45713806 16.36270142 C24.38095329 19.03631909 23.32239747 21.71679436 22.26391602 24.39746094 C21.4863363 26.35900091 20.69857099 28.31623262 19.91015625 30.2734375 C19.21611694 32.02793213 19.21611694 32.02793213 18.50805664 33.81787109 C16.99439736 37.01182205 15.39655934 39.41054904 13 42 C10.640625 42.70703125 10.640625 42.70703125 8.25 42.8125 C7.45078125 42.86019531 6.6515625 42.90789062 5.828125 42.95703125 C5.22484375 42.97121094 4.6215625 42.98539062 4 43 C4 40.69 4 38.38 4 36 C6.31 35.34 8.62 34.68 11 34 C12.2304772 29.76120993 11.74929106 27.5180747 9.98046875 23.515625 C9.31241211 21.99001953 9.31241211 21.99001953 8.63085938 20.43359375 C8.15455078 19.38300781 7.67824219 18.33242188 7.1875 17.25 C6.49043945 15.65091797 6.49043945 15.65091797 5.77929688 14.01953125 C3.85979514 8.66472932 3.85979514 8.66472932 0 5 C0 3.35 0 1.7 0 0 Z " fill="#D59D47" transform="translate(352,403)"/>
<path d="M0 0 C3.14344435 1.74635797 5.46862726 3.46862726 8 6 C8.27450545 9.34896654 8.08628804 12.63476663 8 16 C2.06 16 -3.88 16 -10 16 C-8.46687233 20.31608796 -8.46687233 20.31608796 -6 24 C-3.81360547 24.07258946 -1.62499611 24.08373783 0.5625 24.0625 C1.76003906 24.05347656 2.95757812 24.04445313 4.19140625 24.03515625 C5.58166016 24.01775391 5.58166016 24.01775391 7 24 C7 25.32 7 26.64 7 28 C1.56138767 30.77716374 -2.89186341 31.81367513 -9 31 C-13.75240243 29.29630856 -16.21132117 27.17424881 -19 23 C-19.97832778 17.2523243 -19.78383373 11.7871409 -17.4375 6.4375 C-12.08625507 1.08625507 -7.60485474 -0.96569584 0 0 Z " fill="#D59E49" transform="translate(197,402)"/>
<path d="M0 0 C0.639375 0.33 1.27875 0.66 1.9375 1 C1.9375 3.31 1.9375 5.62 1.9375 8 C-0.4375 7.6875 -0.4375 7.6875 -3.0625 7 C-3.7225 6.01 -4.3825 5.02 -5.0625 4 C-8.12806598 3.26656572 -8.12806598 3.26656572 -11.0625 3 C-10.09658366 6.52954337 -9.32530295 7.81607479 -6.27734375 9.94921875 C-5.19582031 10.52285156 -4.11429688 11.09648437 -3 11.6875 C2.84976645 14.8245329 2.84976645 14.8245329 3.9375 17 C4.51018722 23.18502203 4.51018722 23.18502203 2.3125 26.3125 C-2.77328882 29.92608679 -7.9864381 30.62689528 -14.0625 30 C-17.5625 29 -17.5625 29 -20.0625 28 C-20.0625 25.36 -20.0625 22.72 -20.0625 20 C-16.80172481 20.36230835 -15.38986165 20.6624083 -13.0625 23.0625 C-11.19414039 25.27820383 -11.19414039 25.27820383 -8.3125 25.25 C-7.19875 25.12625 -7.19875 25.12625 -6.0625 25 C-6.0625 23.68 -6.0625 22.36 -6.0625 21 C-6.82175781 20.61328125 -7.58101562 20.2265625 -8.36328125 19.828125 C-9.35714844 19.30734375 -10.35101563 18.7865625 -11.375 18.25 C-12.36113281 17.73953125 -13.34726563 17.2290625 -14.36328125 16.703125 C-17.06467378 14.99862841 -18.46499695 13.73857665 -20.0625 11 C-20.5625 7.5 -20.5625 7.5 -20.0625 4 C-14.54065531 -1.67108374 -7.33364377 -2.39465919 0 0 Z " fill="#D59E4A" transform="translate(230.0625,403)"/>
<path d="M0 0 C0.33 0.99 0.66 1.98 1 3 C1.556875 2.505 2.11375 2.01 2.6875 1.5 C5.38162983 -0.24754367 6.85375007 -0.26218749 10 0 C10 2.64 10 5.28 10 8 C7.03 8 4.06 8 1 8 C1 13.94 1 19.88 1 26 C2.98 26 4.96 26 7 26 C7 27.32 7 28.64 7 30 C1.06 30 -4.88 30 -11 30 C-11 28.68 -11 27.36 -11 26 C-10.01 26 -9.02 26 -8 26 C-8 20.06 -8 14.12 -8 8 C-8.99 7.67 -9.98 7.34 -11 7 C-10.67 5.35 -10.34 3.7 -10 2 C-3.375 0 -3.375 0 0 0 Z " fill="#D59D47" transform="translate(164,402)"/>
<path d="M0 0 C1.34405654 0.7163092 2.68267353 1.4429194 4.015625 2.1796875 C7.00285523 3.60912384 9.73343373 3.86320281 13.015625 4.13671875 C11.51254898 8.81295527 8.1502719 9.99556232 4.015625 12.13671875 C0.32309235 13.98298508 -3.94574804 13.48412752 -7.984375 13.13671875 C-12.23547999 11.59086239 -14.59522659 9.9859023 -16.984375 6.13671875 C-12.56580241 0.14008452 -7.6836268 -3.34268016 0 0 Z " fill="#D59E49" transform="translate(320.984375,160.86328125)"/>
<path d="M0 0 C0.66 0 1.32 0 2 0 C2.23847656 0.598125 2.47695313 1.19625 2.72265625 1.8125 C4.27483738 4.47066952 5.81753172 5.41683362 8.4375 7 C11.71048944 8.98428355 14.03578345 10.66829091 16 14 C16.36328125 16.21875 16.36328125 16.21875 16.3125 18.5 C16.30863281 19.2528125 16.30476563 20.005625 16.30078125 20.78125 C15.97144914 23.21060894 15.20809315 24.88222715 14 27 C7.92914698 25.30580846 4.53413061 22.99022349 0.6875 18 C-1.97855479 13.06564859 -1.50379216 7.44260714 -1 2 C-0.67 1.34 -0.34 0.68 0 0 Z " fill="#D59D48" transform="translate(258,208)"/>
<path d="M0 0 C0.33 0 0.66 0 1 0 C0.83034516 6.66280842 -0.28050149 12.06597883 -5 17 C-9.97647507 20.41717955 -14.83861139 22.81070903 -21 22 C-21.4861027 18.03016126 -21.83203065 14.4959743 -19.83984375 10.9140625 C-15.88734766 6.1225455 -12.57840123 4.31118636 -6.375 3.5625 C-2.94708767 2.99118128 -2.06553882 2.63929961 0 0 Z " fill="#D59D48" transform="translate(307,241)"/>
<path d="M0 0 C1.485 0.99 1.485 0.99 3 2 C3 2.66 3 3.32 3 4 C3.58007812 4.13535156 4.16015625 4.27070313 4.7578125 4.41015625 C9.98819244 5.85153158 13.60649509 7.55148543 16.98046875 11.8828125 C18.85933089 15.78451089 18.45797669 19.78491825 18 24 C16 24.8125 16 24.8125 13 25 C6.84805261 22.28339749 2.44783931 18.33003042 -0.25 12.125 C-1.23169449 8.03460629 -1.93459834 3.86919668 0 0 Z " fill="#D59D48" transform="translate(254,237)"/>
<path d="M0 0 C0.28875 1.216875 0.5775 2.43375 0.875 3.6875 C1.47593013 6.13414411 2.1082664 8.24660681 3.125 10.5625 C4.6664614 14.85657105 4.67713932 18.54415046 2.75 22.6875 C0.99126418 25.01154376 -0.86838503 27.01539296 -3 29 C-6.30901116 27.9730655 -7.0219638 26.96077893 -8.75 23.875 C-10.52948676 19.12642484 -10.94102758 14.64935457 -9.23828125 9.85546875 C-4.6122449 0 -4.6122449 0 0 0 Z " fill="#D59D47" transform="translate(299,134)"/>
<path d="M0 0 C0.66 0 1.32 0 2 0 C2.309375 1.2375 2.309375 1.2375 2.625 2.5 C3.87015545 5.66948659 4.9643246 7.35629142 7.0625 9.9375 C9.91634243 13.61671843 11.08699805 16.21510711 11 21 C10.31941013 23.74980263 9.4581372 25.48597034 8 28 C5.88671875 28.6953125 5.88671875 28.6953125 4 29 C-1.80495164 22.66566597 -4.46728797 18.28983615 -4.3359375 9.515625 C-3.81595014 5.62176615 -2.22659312 3.2007276 0 0 Z " fill="#D59D47" transform="translate(278,157)"/>
<path d="M0 0 C3.78844758 1.51821682 7.10026471 3.10026471 10 6 C11.98821313 6.39764263 13.98944339 6.73775349 16 7 C13.29130484 10.81223763 11.45189131 12.59613655 7 14 C0.39656995 14.87932999 -5.3363684 15.14621393 -10.8125 11 C-11.90203578 10.0295269 -12.97603945 9.03942823 -14 8 C-11.31324053 1.96746458 -6.64323434 -1.06291749 0 0 Z " fill="#D59D48" transform="translate(333,146)"/>
<path d="M0 0 C1 3 1 3 0.06640625 5.12109375 C-3.45185286 10.54012661 -6.58597938 14.33460517 -13 16 C-21.33740831 16.83129584 -21.33740831 16.83129584 -25 15 C-24.74385063 10.64546078 -24.42722153 8.50390232 -21.5625 5.125 C-17.0913992 1.41725787 -12.97239191 1.67524221 -7.41015625 1.39453125 C-3.57873373 1.23644006 -3.57873373 1.23644006 0 0 Z " fill="#D49C46" transform="translate(316,198)"/>
<path d="M0 0 C0.66 0.33 1.32 0.66 2 1 C2.33 1.99 2.66 2.98 3 4 C5.20615997 5.86077289 7.5266966 7.5014982 9.87109375 9.18359375 C12.07751261 11.06613461 13.02350991 12.29507022 14 15 C14.31552523 19.96952231 14.2647694 23.47046119 12 28 C6.53777062 26.6994692 3.37363039 24.35847901 0 20 C-2.48839634 15.02320733 -2.61420887 9.47368489 -2 4 C-0.984375 1.6953125 -0.984375 1.6953125 0 0 Z " fill="#D49C46" transform="translate(266,180)"/>
<path d="M0 0 C2.67532068 0.44588678 4.07097456 0.17110305 6.625 -0.5625 C3.89889754 6.13916854 1.16862046 9.30677399 -5.375 12.4375 C-9.07838204 13.67196068 -12.52160418 13.88731274 -16.375 13.4375 C-19.375 11.9375 -19.375 11.9375 -21.375 10.4375 C-21.26436823 6.67601969 -20.03471443 4.69173069 -17.4375 2.125 C-12.09813403 -2.15967639 -6.37970072 -1.06328345 0 0 Z " fill="#D49C46" transform="translate(316.375,180.5625)"/>
<path d="M0 0 C-0.32153469 5.30532233 -3.22817354 8.54391466 -7 12 C-12.51055167 15.28513657 -17.73632693 15.59544972 -24 15 C-24.66 14.67 -25.32 14.34 -26 14 C-25.59709958 8.35939411 -23.78085674 5.96528877 -20 2 C-17.00615318 0.50307659 -13.85311517 0.62633116 -10.5625 0.4375 C-9.88123047 0.39431641 -9.19996094 0.35113281 -8.49804688 0.30664062 C-5.65995905 0.13151865 -2.84411369 0 0 0 Z " fill="#D49C46" transform="translate(313,222)"/>
<path d="M0 0 C-0.33 0.99 -0.66 1.98 -1 3 C-1.19575704 6.74548479 -1.3176012 10.48928296 -1.42578125 14.23828125 C-2.07304248 18.47850279 -3.34673867 20.67344867 -6 24 C-8.99110566 26.12272015 -11.38437619 26.20086799 -15 26 C-17.27222584 21.45554833 -16.47403024 15.51097138 -15 10.8125 C-11.49607055 5.88509921 -6.37803667 0 0 0 Z " fill="#D49C46" transform="translate(326,119)"/>
<path d="M0 0 C6.77842362 0.24122504 11.77750893 0.44705907 17 5 C19 8 19 8 18.625 10.6875 C18.315625 11.8321875 18.315625 11.8321875 18 13 C8.0480427 13.58540925 8.0480427 13.58540925 4 10 C1.69066746 6.78668532 0 4.06089915 0 0 Z " fill="#D59F4B" transform="translate(207,243)"/>
<path d="M0 0 C2.37160148 2.37160148 2.31983352 3.00621122 2.375 6.25 C2.26343576 10.87619705 1.10944186 13.4703633 -2 17 C-4.98893229 19.18702362 -6.27944454 20 -10 20 C-11.60127074 16.79745853 -11.40701607 14.54685436 -11 11 C-8.21243934 6.5099694 -4.22865167 3.1093027 0 0 Z " fill="#D59F4B" transform="translate(247,234)"/>
<path d="M0 0 C3.375 1.8125 3.375 1.8125 6 4 C6 4.99 6 5.98 6 7 C-1.85714286 12.02857143 -1.85714286 12.02857143 -7 11 C-10.1576414 9.20305275 -13.09051193 7.17241776 -16 5 C-15.39929688 4.70351562 -14.79859375 4.40703125 -14.1796875 4.1015625 C-12.47109501 3.23808027 -10.79159697 2.31698959 -9.125 1.375 C-5.64569143 -0.15589577 -3.75248426 -0.54723729 0 0 Z " fill="#D59F4A" transform="translate(207,198)"/>
<path d="M0 0 C12.89298556 -0.68864611 12.89298556 -0.68864611 16.6875 1.8125 C19 4 19 4 21 7 C21 7.99 21 8.98 21 10 C16.91993333 11.36002222 13.26217608 11.64114786 9 11 C4.34326242 8.06798004 2.11086658 5.04262572 0 0 Z " fill="#D59E49" transform="translate(203,227)"/>
<path d="M0 0 C3.97173936 3.76806042 5.78910759 5.76454043 6.3125 11.3125 C5.94227165 15.68119458 4.74219139 17.63102201 2 21 C1.01 21.66 0.02 22.32 -1 23 C-4.42503585 20.07618891 -4.77067423 17.62960381 -5.14453125 13.27734375 C-4.9220512 9.77177978 -3.10209007 7.72035186 -1 5 C-0.21784412 2.2717496 -0.21784412 2.2717496 0 0 Z " fill="#D59E49" transform="translate(230,195)"/>
<path d="M0 0 C12.88328168 -0.86015976 12.88328168 -0.86015976 16.75 2.1875 C18.98017112 4.9752139 19.79861029 6.47568011 20 10 C15.50232771 11.4992241 10.55193419 12.24904796 6.1484375 10.09375 C2.41704668 7.22627725 1.30203183 4.37240458 0 0 Z " fill="#D59D48" transform="translate(200,212)"/>
<path d="M0 0 C2.9375 2.5 2.9375 2.5 5 5 C0.35980896 9.52418626 -2.45203377 11 -9 11 C-13.05763553 9.49717203 -14.58772494 8.61841259 -17 5 C-6.02727273 -1.18181818 -6.02727273 -1.18181818 0 0 Z " fill="#D59E49" transform="translate(197,188)"/>
<path d="M0 0 C5.00364033 1.28000102 7.56576478 3.17328076 11 7 C11.33 7.33 11.66 7.66 12 8 C12.07226502 9.85287502 12.0838122 11.70833878 12.0625 13.5625 C12.05347656 14.57441406 12.04445312 15.58632812 12.03515625 16.62890625 C12.02355469 17.41136719 12.01195312 18.19382813 12 19 C11.01 19.33 10.02 19.66 9 20 C5.07656855 17.8381092 2.60061879 16.20253793 1 12 C0.71519194 9.9257375 0.51125776 7.83928561 0.375 5.75 C0.30023438 4.67234375 0.22546875 3.5946875 0.1484375 2.484375 C0.09945312 1.66453125 0.05046875 0.8446875 0 0 Z " fill="#D59D48" transform="translate(197,168)"/>
<path d="M0 0 C2.08917299 0.54040747 4.1712507 1.10828902 6.25 1.6875 C7.41015625 2.00074219 8.5703125 2.31398438 9.765625 2.63671875 C13.4630109 4.19515798 14.89729793 5.61918492 17 9 C17.25 12.3125 17.25 12.3125 17 15 C12.13337803 15.512276 9.098334 15.59896367 5.125 12.5625 C1.34952874 8.97623231 0.54935719 5.04511701 0 0 Z " fill="#D59D48" transform="translate(210,259)"/>
<path d="M0 0 C4.20503378 1.40167793 5.0003054 3.06956579 7 7 C7.70747465 11.81390361 7.6174393 15.71366812 5.5 20.125 C5.005 20.74375 4.51 21.3625 4 22 C0.61768919 20.60042311 -1.27928642 19.26935579 -3 16 C-3.61842533 9.81574671 -2.43244989 5.67571641 0 0 Z " fill="#D59D48" transform="translate(217,178)"/>
<path d="M0 0 C2.07776754 1.69197516 2.92301562 2.59704571 3.43359375 5.26953125 C3.44243732 11.02669378 2.94772635 14.48831274 -1 19 C-4 21 -4 21 -6.1875 20.625 C-7.0846875 20.315625 -7.0846875 20.315625 -8 20 C-8.86097841 10.31877615 -8.86097841 10.31877615 -5.625 6.4375 C-3 4 -3 4 -1 3 C-0.67 2.01 -0.34 1.02 0 0 Z " fill="#D59D48" transform="translate(240,213)"/>
<path d="M0 0 C0.33 0 0.66 0 1 0 C1.56606361 10.79713931 1.56606361 10.79713931 -2 15 C-5.08168075 17.9754159 -7.79278701 18.52190761 -12 19 C-12.78463713 10.99670123 -12.78463713 10.99670123 -9.6875 7.0625 C-4.39393939 3 -4.39393939 3 -1 3 C-0.67 2.01 -0.34 1.02 0 0 Z " fill="#D59D47" transform="translate(250,255)"/>
<path d="M0 0 C7.84527684 1.05330106 13.51127087 3.77457322 18.609375 9.94921875 C19.79649453 11.59317922 20.90692207 13.29206574 22 15 C21.67 15.66 21.34 16.32 21 17 C20.21625 16.319375 19.4325 15.63875 18.625 14.9375 C14.3061709 11.9786868 9.89630847 13.1097621 5 14 C6.12451727 11.0280615 7.22293791 8.66559313 9 6 C6.06171403 3.49701566 3.82097239 2.53069061 0 2 C0 1.34 0 0.68 0 0 Z " fill="#F4F8E1" transform="translate(192,186)"/>
<path d="M0 0 C0.02689216 1.47906892 0.04634621 2.95827483 0.0625 4.4375 C0.07410156 5.26121094 0.08570313 6.08492188 0.09765625 6.93359375 C0 9 0 9 -1 10 C-3.4375 10.1875 -3.4375 10.1875 -6 10 C-8 8 -8 8 -8.3125 5.5625 C-8 3 -8 3 -6.8125 1.1875 C-4.44017475 -0.36678206 -2.77958655 -0.22537188 0 0 Z " fill="#F4F7DF" transform="translate(339,418)"/>
<path d="M0 0 C1.2375 0.1546875 1.2375 0.1546875 2.5 0.3125 C4.5 3.3125 4.5 3.3125 4.5 8.3125 C1.2 8.3125 -2.1 8.3125 -5.5 8.3125 C-4.48895028 0.56111878 -4.48895028 0.56111878 0 0 Z " fill="#F4F7DF" transform="translate(192.5,405.6875)"/>
<path d="M0 0 C0.33 0 0.66 0 1 0 C1.33 2.97 1.66 5.94 2 9 C1.34 9 0.68 9 0 9 C-0.33 9.66 -0.66 10.32 -1 11 C-1.33 9.02 -1.66 7.04 -2 5 C-1.34 5 -0.68 5 0 5 C0 3.35 0 1.7 0 0 Z " fill="#ECE1B9" transform="translate(231,225)"/>
<path d="M0 0 C0.99 0.33 1.98 0.66 3 1 C0.87219421 3.34058637 -1.11562221 4.70700306 -4 6 C-2.25 1.125 -2.25 1.125 0 0 Z " fill="#D7A453" transform="translate(322,143)"/>
<path d="M0 0 C0.5775 0.763125 1.155 1.52625 1.75 2.3125 C3.71703093 4.66200917 5.48476744 6.29323505 8 8 C4.62537285 7.45276317 2.91765 6.9451 0 5 C-0.1875 2.375 -0.1875 2.375 0 0 Z " fill="#F0EBCA" transform="translate(198,180)"/>
</svg>
